<svg width="1280" height="560" xmlns="http://www.w3.org/2000/svg" xmlns:xlink="http://www.w3.org/1999/xlink" overflow="hidden"><defs><clipPath id="clip0"><rect x="0" y="0" width="1280" height="720"/></clipPath></defs><g clip-path="url(#clip0)"><rect x="0" y="0" width="1280" height="720.188" fill="#FFFFFF"/><text font-family="Arial Black,Arial Black_MSFontService,sans-serif" font-weight="900" font-size="37" transform="matrix(1 0 0 1.00026 476.293 99)">GB</text><text font-family="Arial Black,Arial Black_MSFontService,sans-serif" font-weight="900" font-size="37" transform="matrix(1 0 0 1.00026 548.94 99)">Composition</text><g><g><g><path d="M51.5917 83.7083C55.6917 83.8792 59.7917 83.1958 63.7208 81.8292 66.625 80.8042 69.3583 78.925 71.4083 76.5333L71.4083 76.5333C78.2417 79.4375 85.7583 79.4375 92.5917 76.5333 92.5917 76.5333 92.5917 76.5333 92.7625 76.7042 94.8125 79.0958 97.375 80.975 100.279 82 106.429 84.5625 116.338 83.7083 116.85 83.7083L120.096 83.3667 117.875 80.8042C115.996 78.5833 114.8 76.0208 114.629 73.1167 114.629 70.725 114.971 68.1625 115.483 65.7708 116.85 58.425 118.388 49.2 112.067 39.6333 111.213 38.2667 110.188 37.0708 109.163 35.875L110.7 5.125 95.325 16.2292 82 6.49167 68.5042 16.2292 53.1292 5.125 54.6667 35.7042C53.6417 36.9 52.7875 38.2667 51.9333 39.6333 45.7833 49.2 47.3208 58.425 48.6875 65.7708 49.2 68.1625 49.3708 70.5542 49.3708 73.1167 49.0292 76.0208 47.8333 78.7542 45.9542 80.8042L43.7333 83.3667 46.9792 83.7083C47.4917 83.5375 49.2 83.7083 51.5917 83.7083ZM82 75.1667C68.8458 75.1667 58.0833 64.575 58.0833 51.25 58.0833 46.9792 59.2792 42.8792 61.3292 39.2917L102.671 39.2917C109.333 50.7375 105.404 65.2583 93.9584 71.9208 90.3708 74.1417 86.2709 75.1667 82 75.1667ZM112.067 65.0875C111.554 67.8208 111.213 70.5542 111.213 73.2875 111.383 75.6792 112.238 78.0708 113.433 80.2917 109.333 80.4625 105.404 79.95 101.475 78.7542 99.2542 77.9 97.375 76.7042 95.6667 74.825 107.967 67.65 112.75 52.1042 106.429 39.2917L107.625 39.2917C108.138 39.975 108.65 40.6583 109.163 41.5125 114.8 49.8833 113.263 58.2542 112.067 65.0875ZM68.5042 20.5 82 10.5917 95.4958 20.3292 106.942 11.9583 105.746 35.875 58.2542 35.875 57.0583 11.9583 68.5042 20.5ZM52.1042 65.2583C50.9083 58.425 49.5417 50.0542 55.0083 41.5125 55.5208 40.6583 56.0333 39.975 56.375 39.2917L57.4 39.2917C51.0792 52.1042 55.8625 67.65 68.1625 74.825 66.625 76.5333 64.575 77.9 62.3542 78.7542 58.5958 79.95 54.4958 80.4625 50.5667 80.2917 51.7625 78.0708 52.6167 75.6792 52.7875 73.2875 52.9583 70.5542 52.6167 67.9917 52.1042 65.2583 52.1042 65.2583 52.1042 65.2583 52.1042 65.2583Z" transform="matrix(1 0 0 1.00026 60 285.074)"/><path d="M130.688 101.646C122.829 95.6667 113.946 91.225 104.208 88.8334 101.988 88.15 99.7667 87.6375 97.5458 87.125L96.6917 86.9542 96.0083 87.6375C89.175 93.9584 84.5625 93.9584 82 93.9584 79.4375 93.9584 74.6542 93.9584 67.8208 87.6375L67.1375 87.125 66.2833 87.125C64.2333 87.6375 62.0125 88.15 59.6208 88.6625 50.225 91.3959 41.1708 95.8375 33.1417 101.475 29.3833 104.379 27.3333 108.65 27.1625 113.433L27.1625 140.083 30.5792 140.083 30.5792 113.604C30.5792 110.017 32.2875 106.6 35.1917 104.379 42.8792 98.9125 51.4208 94.8125 60.475 92.0792 62.3542 91.5667 64.2333 91.0542 65.9417 90.7125 72.6042 96.5209 77.7292 97.375 81.8292 97.375 85.9292 97.375 91.0542 96.5209 97.7167 90.7125 99.5958 91.0542 101.304 91.5667 103.183 92.0792 112.408 94.4708 120.95 98.5709 128.467 104.379 131.371 106.6 133.079 110.017 133.079 113.604L133.079 140.083 136.496 140.083 136.496 113.604C136.667 108.992 134.446 104.55 130.688 101.646Z" transform="matrix(1 0 0 1.00026 60 285.074)"/></g></g></g><path d="M64 476.124C64 468.39 70.2682 462.12 78.0004 462.12L210 462.12C217.732 462.12 224 468.39 224 476.124L224 532.138C224 539.872 217.732 546.142 210 546.142L78.0004 546.142C70.2682 546.142 64 539.872 64 532.138Z" stroke="#000000" stroke-width="1.99948" stroke-linejoin="round" stroke-miterlimit="10" fill="#FFFFFF" fill-rule="evenodd"/><text font-family="Arial Black,Arial Black_MSFontService,sans-serif" font-weight="900" font-size="19" transform="matrix(1 0 0 1.00026 81.837 510)">Chairperson</text><g><g><g><path d="M46.6255 87.8835 46.6512 87.8835C47.1637 87.8835 59.3851 87.6614 65.4018 84.4822 65.4531 84.4532 65.5061 84.4224 65.5556 84.39 68.0492 82.5605 70.3962 80.539 72.5751 78.3442 72.9681 77.9701 73.3473 77.6096 73.718 77.2611 75.9793 78.0027 78.3298 78.4369 80.7068 78.5526 81.1458 78.5731 81.5849 78.5833 82.0205 78.5833 84.3854 78.578 86.7396 78.267 89.0247 77.6574 89.3373 77.9496 89.6534 78.2468 89.9933 78.568 92.0689 80.6093 94.2672 82.5221 96.5755 84.296 102.165 88.3431 116.144 85.2954 117.721 84.9349 118.384 84.7767 118.89 84.2396 119.008 83.5683 119.122 82.8877 118.822 82.2042 118.244 81.8275 118.208 81.8053 114.745 79.4683 112.519 70.6703 111.79 67.8157 113.054 62.0894 114.399 56.0265 115.867 50.3651 116.762 44.5703 117.07 38.7296 117.07 30.0598 114.508 24.7503 109.016 22.0238 106.187 20.925 103.085 20.7381 100.144 21.4891 98.6067 19.4238 94.517 15.0743 85.948 12.4042 76.6924 9.85867 66.8023 11.1339 58.4951 15.9439 51.344 20.5564 47.9136 25.7155 47.7548 42.4999 47.6898 49.5758 48.1067 56.1666 48.4757 61.9869 48.973 66.801 49.0558 71.6487 48.7234 76.477 48.3255 79.6206 47.1305 82.6102 45.252 85.1621 44.6926 85.9218 44.8549 86.9912 45.6146 87.5507 45.9057 87.7651 46.2572 87.8816 46.6187 87.8835ZM80.864 75.1394C68.6487 74.4746 58.8714 64.7592 58.1295 52.5483 58.0876 51.722 58.0876 50.8942 58.1295 50.0678 58.2094 48.3312 59.6089 46.9465 61.3463 46.8852 62.5764 46.8652 63.8032 46.7509 65.0158 46.5436 70.5702 45.8098 75.9899 44.28 81.1083 42.0011 86.7353 39.1699 91.9594 35.6005 96.6421 31.3872 97.0667 34.049 98.0131 36.6005 99.4267 38.8953 99.4597 38.9502 99.4961 39.0026 99.5361 39.0525 100.212 39.8583 100.994 40.5687 101.861 41.164L102.14 41.3741C102.461 41.6239 102.758 41.9042 103.026 42.2112 104.618 44.0412 105.587 46.3303 105.792 48.7473 105.877 49.5787 105.919 50.4141 105.917 51.25 105.917 64.4588 95.2085 75.1665 81.9997 75.1663 81.6209 75.1663 81.2422 75.1573 80.864 75.1394ZM51.8872 61.7699C51.5216 56.0111 51.1065 49.4819 51.1714 42.5307 51.3166 27.2189 54.12 22.8387 60.2717 18.8617 67.7539 14.5436 76.6521 13.397 84.9845 15.6774 94.7715 18.7268 97.8465 24.1815 97.8721 24.219 98.2541 24.9422 99.095 25.2931 99.8777 25.0561 101.19 24.6615 105.117 23.8928 107.49 25.0715 110.357 26.4928 113.64 29.3304 113.64 38.7074 113.324 44.3029 112.456 49.8536 111.049 55.2783 109.557 62.0296 108.269 67.8618 109.2 71.5074 110.035 75.3467 111.627 78.981 113.883 82.1982 109.014 82.9994 101.513 83.6605 98.5709 81.5319 96.5051 79.9428 94.5365 78.2314 92.6754 76.4069 102.776 72.1267 109.336 62.2197 109.333 51.25 109.333 50.2949 109.284 49.3404 109.186 48.3903 108.907 45.2553 107.638 42.2903 105.563 39.9238 105.149 39.4548 104.691 39.0264 104.196 38.6442L103.904 38.4255C103.311 38.0198 102.766 37.547 102.281 37.0162 101.083 35.0441 100.297 32.8497 99.97 30.5655 99.7079 28.7921 98.058 27.5669 96.2846 27.8289 95.6233 27.9266 95.0085 28.2261 94.5238 28.6863 90.0456 32.7453 85.0407 36.1822 79.6442 38.9039 74.8236 41.0407 69.7212 42.4738 64.493 43.1593 63.4244 43.344 62.3434 43.4462 61.2591 43.4651 57.7354 43.5765 54.8872 46.3741 54.7128 49.8953L54.7128 49.8953C54.6684 50.8383 54.6701 51.7881 54.7128 52.7226 55.3196 62.6738 61.2579 71.5197 70.2381 75.85L70.2193 75.8688C68.197 77.905 66.0273 79.7893 63.7277 81.5063 60.1402 83.3633 53.6724 84.0688 49.7945 84.3233 50.9963 82.0212 51.7784 79.5233 52.1042 76.9468 52.4891 71.8916 52.4165 66.8121 51.8872 61.7699Z" transform="matrix(1 0 0 1.00026 260 285.074)"/><path d="M130.744 101.689C122.902 95.6518 113.919 91.2667 104.336 88.7975 102.129 88.1363 99.9068 87.5658 97.7321 87.1011L96.8659 86.9149 96.2151 87.5179C89.2536 93.9584 84.5352 93.9584 82 93.9584 79.4648 93.9584 74.7071 93.9584 67.7798 87.6033L67.1324 87.0088 66.2782 87.1899C64.1855 87.6307 61.9749 88.1688 59.6892 88.7924 50.2214 91.567 41.2913 95.9233 33.2766 101.677 29.6018 104.556 27.4189 108.937 27.3333 113.604L27.3333 140.083 30.75 140.083 30.75 113.604C30.8253 110.001 32.5101 106.622 35.342 104.393 43.0121 98.9024 51.5526 94.7442 60.6048 92.0928 62.5011 91.5804 64.3632 91.1157 66.1313 90.7262 72.775 96.567 77.8727 97.375 82 97.375 86.1273 97.375 91.1977 96.5567 97.8704 90.6288 99.683 91.0388 101.526 91.5223 103.376 92.0775 112.524 94.4232 121.103 98.5961 128.595 104.345 131.46 106.575 133.169 109.975 133.25 113.604L133.25 140.083 136.667 140.083 136.667 113.604C136.584 108.944 134.409 104.568 130.744 101.689Z" transform="matrix(1 0 0 1.00026 260 285.074)"/></g></g></g><path d="M264 476.124C264 468.39 270.268 462.12 278 462.12L410 462.12C417.732 462.12 424 468.39 424 476.124L424 532.138C424 539.872 417.732 546.142 410 546.142L278 546.142C270.268 546.142 264 539.872 264 532.138Z" stroke="#000000" stroke-width="1.99948" stroke-linejoin="round" stroke-miterlimit="10" fill="#FFFFFF" fill-rule="evenodd"/><text font-family="Arial Black,Arial Black_MSFontService,sans-serif" font-weight="900" font-size="19" transform="matrix(1 0 0 1.00026 293.906 510)">Treasurer</text><g><g><g><path d="M129.198 99.4694C124.911 96.0823 120.166 93.3213 115.102 91.2694L115.102 91.2694C113.483 90.577 111.837 89.9176 110.165 89.2912L99.4968 85.0203C98.2131 84.4976 97.3742 83.2493 97.375 81.8633L97.375 76.8289C103.821 72.0044 107.618 64.4262 107.625 56.375L107.625 44.4167 114.458 44.4167C115.402 44.4167 116.167 43.6519 116.167 42.7083 116.167 41.7648 115.402 41 114.458 41L110.157 41 110.157 38.1249 110.157 38.0173C109.577 28.2917 103.979 19.5683 95.3797 14.9889L94.4059 14.4662C93.451 10.9729 90.2801 8.54806 86.6586 8.54167L77.3721 8.54167C73.729 8.54761 70.5443 11.0001 69.6078 14.5208L68.7246 14.994C60.1245 19.5729 54.5266 28.2967 53.9475 38.0224L53.9475 38.13 53.9475 41 49.5417 41C48.5982 41 47.8333 41.7648 47.8333 42.7083 47.8333 43.6519 48.5982 44.4167 49.5417 44.4167L56.375 44.4167 56.375 56.375C56.3824 64.4201 60.175 71.9926 66.6131 76.8169L66.6131 81.8633C66.6165 83.249 65.7802 84.4985 64.4981 85.0238L55.2988 88.765C47.9189 91.1394 40.9964 94.7517 34.8278 99.4472 31.2482 102.241 29.1218 106.502 29.0417 111.042L29.0417 140.14 29.8019 140.652C37.7969 145.972 60.2649 148.625 82.5501 148.625 104.929 148.625 127.126 145.943 134.266 140.586L134.958 140.083 134.958 111.006C134.872 106.489 132.756 102.252 129.198 99.4694ZM57.3573 38.2325C57.8951 29.6966 62.8052 22.0445 70.3406 17.999L72.7323 27.7843C72.8999 28.476 73.5205 28.9622 74.2322 28.9597L74.6542 28.9597C74.6836 28.9545 74.7126 28.9475 74.7413 28.9392 75.5647 28.7152 76.0516 27.8668 75.8295 27.0429L72.8912 15.4655C73.4074 13.4096 75.2524 11.9656 77.3721 11.9583L86.6467 11.9583C88.7674 11.9656 90.6131 13.4103 91.1293 15.4673L88.1927 27.0429C88.1843 27.0716 88.1774 27.1007 88.1722 27.13 87.9937 27.9603 88.5221 28.7779 89.3522 28.9564 89.3575 28.9575 89.3628 28.9586 89.3681 28.9597L89.7849 28.9597C90.4966 28.9622 91.1172 28.476 91.2848 27.7843L93.7585 17.999C101.294 22.0445 106.204 29.6966 106.742 38.2325L106.742 41 57.3573 41ZM117.884 133.387 117.884 142.666C107.717 144.332 97.4355 145.198 87.1336 145.258L87.1336 133.25 117.863 133.25ZM108.944 92.4892 111.766 93.6201 117.337 129.833 87.1336 129.833 87.1336 119.951 100.932 89.2809 102.671 89.9762ZM59.7917 56.375 59.7917 44.4167 104.208 44.4167 104.208 56.375C104.208 68.6403 94.2653 78.5833 82 78.5833 69.7347 78.5833 59.7917 68.6403 59.7917 56.375ZM70.0417 81.8633 70.0417 79.0155C77.5214 82.9902 86.487 82.9902 93.9669 79.0155L93.9669 81.8633C93.9628 84.4617 95.44 86.8353 97.7731 87.9792L96.8813 89.9626C92.0821 91.5453 87.0529 92.3184 82 92.25 76.949 92.317 71.922 91.5421 67.1255 89.9574L66.2287 87.9672C68.5612 86.8278 70.0408 84.4592 70.0417 81.8633ZM46.1335 133.383 46.154 133.25 76.8836 133.25 76.8836 145.224C66.5785 145.105 56.298 144.191 46.1335 142.49ZM61.3377 89.9916 63.0802 89.2826 76.8853 119.944 76.8853 129.833 46.6888 129.833 52.3587 93.6491 56.5219 91.9562ZM32.4583 111.078C32.527 107.564 34.1802 104.269 36.9564 102.114 40.2844 99.4645 43.9303 97.2412 47.8094 95.4958L48.6636 95.1542 42.7374 132.985 42.7203 141.792C39.1548 141.108 35.704 139.924 32.4703 138.274ZM80.2917 145.275 80.2917 119.216 68.9859 94.1036C77.5344 96.1831 86.4571 96.1831 95.0056 94.1036L83.7083 119.216 83.7083 145.284C82.5774 145.289 81.4397 145.284 80.3002 145.275ZM131.542 138.329C128.349 140.085 124.893 141.316 121.309 141.973L121.309 133.25 115.466 95.1542C119.621 96.9676 123.522 99.3147 127.071 102.136 129.825 104.281 131.467 107.552 131.542 111.042Z" transform="matrix(1 0 0 1.00026 456 285.074)"/></g></g></g><path d="M460 476.124C460 468.39 466.268 462.12 474 462.12L606 462.12C613.732 462.12 620 468.39 620 476.124L620 532.138C620 539.872 613.732 546.142 606 546.142L474 546.142C466.268 546.142 460 539.872 460 532.138Z" stroke="#000000" stroke-width="1.99948" stroke-linejoin="round" stroke-miterlimit="10" fill="#FFFFFF" fill-rule="evenodd"/><text font-family="Arial Black,Arial Black_MSFontService,sans-serif" font-weight="900" font-size="19" transform="matrix(1 0 0 1.00026 492.768 510)">TAC Rep.</text><g><g><g><path d="M82 85.4167C83.8635 85.4158 85.7221 85.2298 87.5487 84.8615 86.4998 84.0199 85.6256 82.9811 84.9759 81.8036 71.3527 83.4938 58.9385 73.8202 57.2483 60.1969 55.5583 46.5736 65.2319 34.1595 78.8551 32.4693 92.4784 30.779 104.892 40.4527 106.583 54.0759 107.08 58.0881 106.592 62.161 105.16 65.9417L109.176 64.6023C113.239 49.584 104.357 34.1159 89.3392 30.0532 74.3209 25.9906 58.8528 34.8719 54.7902 49.8902 50.7274 64.9085 59.6087 80.3766 74.627 84.4393 77.0306 85.0895 79.5099 85.4182 82 85.4167Z" transform="matrix(1 0 0 1.00026 656 285.074)"/><path d="M130.715 106.834C122.878 100.801 113.901 96.4172 104.325 93.9464 97.0904 91.7254 89.5674 90.5868 82 90.5673 74.45 90.6941 66.951 91.8282 59.7011 93.9396 50.2423 96.7165 41.3205 101.071 33.3125 106.82 29.6427 109.7 27.4632 114.079 27.3778 118.743L27.3778 145.208 30.7944 145.208 30.7944 118.743C30.8689 115.142 32.5533 111.763 35.3847 109.537 43.0473 104.046 51.5811 99.888 60.627 97.2366 67.5754 95.208 74.7628 94.1142 82 93.984 89.2392 94.0072 96.4351 95.1011 103.354 97.2298 112.496 99.575 121.069 103.747 128.556 109.494 131.418 111.722 133.125 115.12 133.206 118.746L133.206 145.208 136.622 145.208 136.622 118.743C136.542 114.087 134.373 109.715 130.715 106.834Z" transform="matrix(1 0 0 1.00026 656 285.074)"/><path d="M57.5948 34.1667C70.7932 20.6927 92.4154 20.4693 105.889 33.6677 109.815 37.5126 112.754 42.2478 114.458 47.4712L114.458 68.2411 97.9815 73.7334C96.2378 71.5146 93.0254 71.1295 90.8068 72.8734 88.588 74.6171 88.203 77.8295 89.9467 80.0481 91.6905 82.2669 94.9027 82.6519 97.1215 80.9081 98.332 79.9567 99.049 78.5102 99.0731 76.9707L119.978 70.0024C122.638 69.797 124.696 67.5847 124.708 64.9167L124.708 51.25C124.708 48.4195 122.414 46.125 119.583 46.125L117.59 46.125C111.007 26.4606 89.7302 15.8554 70.0656 22.4378 64.4262 24.3255 59.3157 27.5257 55.1553 31.775 54.4853 32.4392 54.4805 33.5209 55.1447 34.1909 55.8089 34.8609 56.8906 34.8657 57.5606 34.2015 57.5722 34.1901 57.5835 34.1785 57.5948 34.1667ZM121.292 51.25 121.292 64.9167C121.292 65.8602 120.527 66.625 119.583 66.625L117.875 66.625 117.875 49.5417 119.583 49.5417C120.527 49.5417 121.292 50.3065 121.292 51.25Z" transform="matrix(1 0 0 1.00026 656 285.074)"/></g></g></g><path d="M660 476.124C660 468.39 666.268 462.12 674 462.12L806 462.12C813.732 462.12 820 468.39 820 476.124L820 532.138C820 539.872 813.732 546.142 806 546.142L674 546.142C666.268 546.142 660 539.872 660 532.138Z" stroke="#000000" stroke-width="1.99948" stroke-linejoin="round" stroke-miterlimit="10" fill="#FFFFFF" fill-rule="evenodd"/><text font-family="Arial Black,Arial Black_MSFontService,sans-serif" font-weight="900" font-size="19" transform="matrix(1 0 0 1.00026 682.509 499)">Community</text><text font-family="Arial Black,Arial Black_MSFontService,sans-serif" font-weight="900" font-size="19" transform="matrix(1 0 0 1.00026 717.247 522)">Rep.</text><g><g><g><path d="M134.958 111.009C134.873 106.495 132.761 102.259 129.206 99.4746 123.01 94.4042 115.647 91.2455 107.905 88.478L99.5019 85.0289C98.2177 84.5055 97.3798 83.2551 97.3836 81.8685L97.3836 76.834C103.834 72.01 107.635 64.4295 107.642 56.375L107.642 55.2509 111.383 50.4437C112.872 48.524 113.553 46.0994 113.281 43.6855 112.295 32.8384 105.721 23.2921 95.9383 18.503 94.6357 17.882 93.0994 18.0127 91.9203 18.8446L91.9203 18.8446 91.7085 18.9915 90.9448 17.9478C90.1467 16.8328 88.9446 16.0739 87.5948 15.8328 70.8928 12.9398 54.9675 24.0089 51.8582 40.672L51.795 41.0137C51.0822 44.8561 49.5948 48.5133 47.4233 51.7625 46.9006 52.548 47.1136 53.6085 47.8991 54.1311 48.1793 54.3175 48.5081 54.4171 48.8447 54.4173L56.3904 54.4173 56.3904 56.375C56.3959 64.4211 60.1873 71.9955 66.625 76.8221L66.625 81.8685C66.6276 83.2553 65.7891 84.5051 64.505 85.0289L56.0538 88.4917C48.3339 91.2609 41 94.4128 34.8398 99.4506 31.2642 102.245 29.1406 106.504 29.0605 111.042L29.0605 140.148 29.8207 140.661C37.8105 145.987 60.2768 148.647 82.562 148.647 104.941 148.647 127.139 145.963 134.278 140.606L134.958 140.083ZM55.1535 41.6338 55.215 41.2921C57.9831 26.4667 72.154 16.62 87.014 19.1965 87.4874 19.2922 87.9061 19.5654 88.1842 19.9602L89.9318 22.3518C90.4793 23.1018 91.5255 23.2771 92.2876 22.7465L93.8678 21.6463C94.0337 21.5228 94.2523 21.4954 94.4435 21.5745 103.151 25.835 109.004 34.3293 109.885 43.9828 110.084 45.5416 109.653 47.1152 108.689 48.3561L107.471 49.9192C107.083 47.5631 106.045 45.3617 104.475 43.5625L98.6751 36.9085C98.2493 36.421 97.5846 36.216 96.9582 36.379 93.7943 37.199 91.8076 39.688 89.7029 42.3223 86.4571 46.3847 82.779 50.9886 73.4737 50.9886L51.8599 50.9886C53.4355 48.0597 54.5466 44.9039 55.1535 41.6338ZM59.807 56.375 59.807 54.4087 73.4737 54.4087C84.4258 54.4087 89.0196 48.6585 92.3747 44.4577 93.5538 42.6909 95.0858 41.1872 96.8745 40.0416L101.902 45.8107C103.398 47.5282 104.224 49.7287 104.225 52.0068L104.225 54.6684 104.225 56.3767C104.212 68.6366 94.277 78.5719 82.0171 78.5851L82.0171 78.5851C69.7559 78.5728 59.8194 68.6362 59.807 56.375ZM65.805 88.1893C68.3725 87.1416 70.0482 84.6416 70.0417 81.8685L70.0417 79.019C77.5223 82.9927 86.488 82.9927 93.9686 79.019L93.9686 81.8599C93.9616 84.6331 95.6375 87.1334 98.2053 88.1808L101.299 89.4501 93.4578 145.089C90.4477 145.207 87.3864 145.272 84.3097 145.289L90.335 139.019 88.2115 103.486 91.9801 90.5417 72.0541 90.5417 75.7834 103.368 73.7043 139.021 79.716 145.278C76.641 145.244 73.566 145.164 70.5473 145.029L62.7129 89.4586ZM85.4406 100.792 78.5936 100.792 76.6051 93.9584 87.4291 93.9584ZM79.1556 104.208 84.8324 104.208 86.8346 137.731 82.0188 142.743 77.2013 137.729ZM59.4671 90.9192 67.0726 144.853C51.9385 143.972 38.552 141.778 32.4788 138.283L32.4788 111.083C32.5487 107.569 34.201 104.275 36.9752 102.117 42.7083 97.4229 49.6749 94.4196 57.0344 91.7785ZM106.983 91.7734C114.346 94.4162 121.312 97.4211 127.078 102.138 129.827 104.285 131.466 107.554 131.542 111.042L131.542 138.337C125.92 141.915 112.379 144.106 96.924 144.926L104.55 90.9158Z" transform="matrix(1 0 0 1.00026 856 285.074)"/><path d="M107.634 116.167 123.007 116.167 123.007 119.583 107.634 119.583Z" transform="matrix(1 0 0 1.00026 856 285.074)"/></g></g></g><path d="M860 476.124C860 468.39 866.268 462.12 874 462.12L1006 462.12C1013.73 462.12 1020 468.39 1020 476.124L1020 532.138C1020 539.872 1013.73 546.142 1006 546.142L874 546.142C866.268 546.142 860 539.872 860 532.138Z" stroke="#000000" stroke-width="1.99948" stroke-linejoin="round" stroke-miterlimit="10" fill="#FFFFFF" fill-rule="evenodd"/><text font-family="Arial Black,Arial Black_MSFontService,sans-serif" font-weight="900" font-size="19" transform="matrix(1 0 0 1.00026 874.334 510)">Premier Rep.</text><g><g><g><path d="M82 27.3333C95.2088 27.3333 105.917 38.0412 105.917 51.25 105.917 64.4588 95.2088 75.1667 82 75.1667 68.7912 75.1667 58.0833 64.4588 58.0833 51.25 58.0965 38.0466 68.7966 27.3465 82 27.3333M82 23.9167C66.9042 23.9167 54.6667 36.1541 54.6667 51.25 54.6667 66.3459 66.9042 78.5833 82 78.5833 97.0959 78.5833 109.333 66.3459 109.333 51.25 109.333 36.1541 97.0959 23.9167 82 23.9167Z" transform="matrix(1 0 0 1.00026 1056 285.074)"/><path d="M136.667 140.083 133.25 140.083 133.25 113.604C133.169 109.976 131.459 106.576 128.595 104.347 121.103 98.5978 112.524 94.4249 103.376 92.0792 96.4503 89.9479 89.2466 88.854 82 88.8334 74.7557 88.9591 67.5605 90.0507 60.6048 92.0792 51.5526 94.7305 43.0121 98.8888 35.342 104.379 32.5065 106.611 30.8212 109.997 30.75 113.604L30.75 140.083 27.3333 140.083 27.3333 113.604C27.4181 108.938 29.5991 104.558 33.2715 101.678 41.2862 95.925 50.2163 91.5687 59.6841 88.7941 66.9392 86.6802 74.4442 85.5443 82 85.4167 89.5715 85.4353 97.0986 86.5746 104.336 88.7975 113.919 91.2667 122.902 95.6518 130.744 101.689 134.409 104.568 136.584 108.944 136.667 113.604Z" transform="matrix(1 0 0 1.00026 1056 285.074)"/></g></g></g><path d="M1060 476.124C1060 468.39 1066.27 462.12 1074 462.12L1206 462.12C1213.73 462.12 1220 468.39 1220 476.124L1220 532.138C1220 539.872 1213.73 546.142 1206 546.142L1074 546.142C1066.27 546.142 1060 539.872 1060 532.138Z" stroke="#000000" stroke-width="1.99948" stroke-linejoin="round" stroke-miterlimit="10" fill="#FFFFFF" fill-rule="evenodd"/><text font-family="Arial Black,Arial Black_MSFontService,sans-serif" font-weight="900" font-size="19" transform="matrix(1 0 0 1.00026 1074.49 510)">General</text><text font-family="Arial Black,Arial Black_MSFontService,sans-serif" font-weight="900" font-size="19" transform="matrix(1 0 0 1.00026 1160.63 510)">Rep.</text></g></svg>
