<svg width="1280" height="720" xmlns="http://www.w3.org/2000/svg" xmlns:xlink="http://www.w3.org/1999/xlink" overflow="hidden"><defs><clipPath id="clip0"><rect x="0" y="0" width="1280" height="720"/></clipPath></defs><g clip-path="url(#clip0)"><rect x="0" y="0" width="1280" height="720.188" fill="#FFFFFF"/><text font-family="Arial Black,Arial Black_MSFontService,sans-serif" font-weight="900" font-size="37" transform="matrix(1 0 0 1.00026 502.286 99)">Voting Rights</text><g><g><g><path d="M129.198 99.4694C124.911 96.0823 120.166 93.3213 115.102 91.2694L115.102 91.2694C113.483 90.577 111.837 89.9176 110.165 89.2912L99.4968 85.0203C98.2131 84.4976 97.3742 83.2493 97.375 81.8633L97.375 76.8289C103.821 72.0044 107.618 64.4262 107.625 56.375L107.625 44.4167 114.458 44.4167C115.402 44.4167 116.167 43.6519 116.167 42.7083 116.167 41.7648 115.402 41 114.458 41L110.157 41 110.157 38.1249 110.157 38.0173C109.577 28.2917 103.979 19.5683 95.3797 14.9889L94.4059 14.4662C93.451 10.9729 90.2801 8.54806 86.6586 8.54167L77.3721 8.54167C73.729 8.54761 70.5443 11.0001 69.6078 14.5208L68.7246 14.994C60.1245 19.5729 54.5266 28.2967 53.9475 38.0224L53.9475 38.13 53.9475 41 49.5417 41C48.5982 41 47.8333 41.7648 47.8333 42.7083 47.8333 43.6519 48.5982 44.4167 49.5417 44.4167L56.375 44.4167 56.375 56.375C56.3824 64.4201 60.175 71.9926 66.6131 76.8169L66.6131 81.8633C66.6165 83.249 65.7802 84.4985 64.4981 85.0238L55.2988 88.765C47.9189 91.1394 40.9964 94.7517 34.8278 99.4472 31.2482 102.241 29.1218 106.502 29.0417 111.042L29.0417 140.14 29.8019 140.652C37.7969 145.972 60.2649 148.625 82.5501 148.625 104.929 148.625 127.126 145.943 134.266 140.586L134.958 140.083 134.958 111.006C134.872 106.489 132.756 102.252 129.198 99.4694ZM57.3573 38.2325C57.8951 29.6966 62.8052 22.0445 70.3406 17.999L72.7323 27.7843C72.8999 28.476 73.5205 28.9622 74.2322 28.9597L74.6542 28.9597C74.6836 28.9545 74.7126 28.9475 74.7413 28.9392 75.5647 28.7152 76.0516 27.8668 75.8295 27.0429L72.8912 15.4655C73.4074 13.4096 75.2524 11.9656 77.3721 11.9583L86.6467 11.9583C88.7674 11.9656 90.6131 13.4103 91.1293 15.4673L88.1927 27.0429C88.1843 27.0716 88.1774 27.1007 88.1722 27.13 87.9937 27.9603 88.5221 28.7779 89.3522 28.9564 89.3575 28.9575 89.3628 28.9586 89.3681 28.9597L89.7849 28.9597C90.4966 28.9622 91.1172 28.476 91.2848 27.7843L93.7585 17.999C101.294 22.0445 106.204 29.6966 106.742 38.2325L106.742 41 57.3573 41ZM117.884 133.387 117.884 142.666C107.717 144.332 97.4355 145.198 87.1336 145.258L87.1336 133.25 117.863 133.25ZM108.944 92.4892 111.766 93.6201 117.337 129.833 87.1336 129.833 87.1336 119.951 100.932 89.2809 102.671 89.9762ZM59.7917 56.375 59.7917 44.4167 104.208 44.4167 104.208 56.375C104.208 68.6403 94.2653 78.5833 82 78.5833 69.7347 78.5833 59.7917 68.6403 59.7917 56.375ZM70.0417 81.8633 70.0417 79.0155C77.5214 82.9902 86.487 82.9902 93.9669 79.0155L93.9669 81.8633C93.9628 84.4617 95.44 86.8353 97.7731 87.9792L96.8813 89.9626C92.0821 91.5453 87.0529 92.3184 82 92.25 76.949 92.317 71.922 91.5421 67.1255 89.9574L66.2287 87.9672C68.5612 86.8278 70.0408 84.4592 70.0417 81.8633ZM46.1335 133.383 46.154 133.25 76.8836 133.25 76.8836 145.224C66.5785 145.105 56.298 144.191 46.1335 142.49ZM61.3377 89.9916 63.0802 89.2826 76.8853 119.944 76.8853 129.833 46.6888 129.833 52.3587 93.6491 56.5219 91.9562ZM32.4583 111.078C32.527 107.564 34.1802 104.269 36.9564 102.114 40.2844 99.4645 43.9303 97.2412 47.8094 95.4958L48.6636 95.1542 42.7374 132.985 42.7203 141.792C39.1548 141.108 35.704 139.924 32.4703 138.274ZM80.2917 145.275 80.2917 119.216 68.9859 94.1036C77.5344 96.1831 86.4571 96.1831 95.0056 94.1036L83.7083 119.216 83.7083 145.284C82.5774 145.289 81.4397 145.284 80.3002 145.275ZM131.542 138.329C128.349 140.085 124.893 141.316 121.309 141.973L121.309 133.25 115.466 95.1542C119.621 96.9676 123.522 99.3147 127.071 102.136 129.825 104.281 131.467 107.552 131.542 111.042Z" transform="matrix(1 0 0 1.00026 258 405.105)"/></g></g></g><path d="M262 595.322C262 587.496 268.343 581.151 276.167 581.151L407.833 581.151C415.657 581.151 422 587.496 422 595.322L422 652.003C422 659.829 415.657 666.173 407.833 666.173L276.167 666.173C268.343 666.173 262 659.829 262 652.003Z" stroke="#000000" stroke-width="1.99948" stroke-linejoin="round" stroke-miterlimit="10" fill="#FFFFFF" fill-rule="evenodd"/><text font-family="Arial Black,Arial Black_MSFontService,sans-serif" font-weight="900" font-size="19" transform="matrix(1 0 0 1.00026 294.634 630)">TAC Rep.</text><g><g><g><path d="M82 85.4167C83.8635 85.4158 85.7221 85.2298 87.5487 84.8615 86.4998 84.0199 85.6256 82.9811 84.9759 81.8036 71.3527 83.4938 58.9385 73.8202 57.2483 60.1969 55.5583 46.5736 65.2319 34.1595 78.8551 32.4693 92.4784 30.779 104.892 40.4527 106.583 54.0759 107.08 58.0881 106.592 62.161 105.16 65.9417L109.176 64.6023C113.239 49.584 104.357 34.1159 89.3392 30.0532 74.3209 25.9906 58.8528 34.8719 54.7902 49.8902 50.7274 64.9085 59.6087 80.3766 74.627 84.4393 77.0306 85.0895 79.5099 85.4182 82 85.4167Z" transform="matrix(1 0 0 1.00026 458 405.105)"/><path d="M130.715 106.834C122.878 100.801 113.901 96.4172 104.325 93.9464 97.0904 91.7254 89.5674 90.5868 82 90.5673 74.45 90.6941 66.951 91.8282 59.7011 93.9396 50.2423 96.7165 41.3205 101.071 33.3125 106.82 29.6427 109.7 27.4632 114.079 27.3778 118.743L27.3778 145.208 30.7944 145.208 30.7944 118.743C30.8689 115.142 32.5533 111.763 35.3847 109.537 43.0473 104.046 51.5811 99.888 60.627 97.2366 67.5754 95.208 74.7628 94.1142 82 93.984 89.2392 94.0072 96.4351 95.1011 103.354 97.2298 112.496 99.575 121.069 103.747 128.556 109.494 131.418 111.722 133.125 115.12 133.206 118.746L133.206 145.208 136.622 145.208 136.622 118.743C136.542 114.087 134.373 109.715 130.715 106.834Z" transform="matrix(1 0 0 1.00026 458 405.105)"/><path d="M57.5948 34.1667C70.7932 20.6927 92.4154 20.4693 105.889 33.6677 109.815 37.5126 112.754 42.2478 114.458 47.4712L114.458 68.2411 97.9815 73.7334C96.2378 71.5146 93.0254 71.1295 90.8068 72.8734 88.588 74.6171 88.203 77.8295 89.9467 80.0481 91.6905 82.2669 94.9027 82.6519 97.1215 80.9081 98.332 79.9567 99.049 78.5102 99.0731 76.9707L119.978 70.0024C122.638 69.797 124.696 67.5847 124.708 64.9167L124.708 51.25C124.708 48.4195 122.414 46.125 119.583 46.125L117.59 46.125C111.007 26.4606 89.7302 15.8554 70.0656 22.4378 64.4262 24.3255 59.3157 27.5257 55.1553 31.775 54.4853 32.4392 54.4805 33.5209 55.1447 34.1909 55.8089 34.8609 56.8906 34.8657 57.5606 34.2015 57.5722 34.1901 57.5835 34.1785 57.5948 34.1667ZM121.292 51.25 121.292 64.9167C121.292 65.8602 120.527 66.625 119.583 66.625L117.875 66.625 117.875 49.5417 119.583 49.5417C120.527 49.5417 121.292 50.3065 121.292 51.25Z" transform="matrix(1 0 0 1.00026 458 405.105)"/></g></g></g><path d="M462 595.322C462 587.496 468.343 581.151 476.167 581.151L607.833 581.151C615.657 581.151 622 587.496 622 595.322L622 652.003C622 659.829 615.657 666.173 607.833 666.173L476.167 666.173C468.343 666.173 462 659.829 462 652.003Z" stroke="#000000" stroke-width="1.99948" stroke-linejoin="round" stroke-miterlimit="10" fill="#FFFFFF" fill-rule="evenodd"/><text font-family="Arial Black,Arial Black_MSFontService,sans-serif" font-weight="900" font-size="19" transform="matrix(1 0 0 1.00026 484.375 619)">Community</text><text font-family="Arial Black,Arial Black_MSFontService,sans-serif" font-weight="900" font-size="19" transform="matrix(1 0 0 1.00026 519.113 642)">Rep.</text><g><g><g><path d="M134.958 111.009C134.873 106.495 132.761 102.259 129.206 99.4746 123.01 94.4042 115.647 91.2455 107.905 88.478L99.5019 85.0289C98.2177 84.5055 97.3798 83.2551 97.3836 81.8685L97.3836 76.834C103.834 72.01 107.635 64.4295 107.642 56.375L107.642 55.2509 111.383 50.4437C112.872 48.524 113.553 46.0994 113.281 43.6855 112.295 32.8384 105.721 23.2921 95.9383 18.503 94.6357 17.882 93.0994 18.0127 91.9203 18.8446L91.9203 18.8446 91.7085 18.9915 90.9448 17.9478C90.1467 16.8328 88.9446 16.0739 87.5948 15.8328 70.8928 12.9398 54.9675 24.0089 51.8582 40.672L51.795 41.0137C51.0822 44.8561 49.5948 48.5133 47.4233 51.7625 46.9006 52.548 47.1136 53.6085 47.8991 54.1311 48.1793 54.3175 48.5081 54.4171 48.8447 54.4173L56.3904 54.4173 56.3904 56.375C56.3959 64.4211 60.1873 71.9955 66.625 76.8221L66.625 81.8685C66.6276 83.2553 65.7891 84.5051 64.505 85.0289L56.0538 88.4917C48.3339 91.2609 41 94.4128 34.8398 99.4506 31.2642 102.245 29.1406 106.504 29.0605 111.042L29.0605 140.148 29.8207 140.661C37.8105 145.987 60.2768 148.647 82.562 148.647 104.941 148.647 127.139 145.963 134.278 140.606L134.958 140.083ZM55.1535 41.6338 55.215 41.2921C57.9831 26.4667 72.154 16.62 87.014 19.1965 87.4874 19.2922 87.9061 19.5654 88.1842 19.9602L89.9318 22.3518C90.4793 23.1018 91.5255 23.2771 92.2876 22.7465L93.8678 21.6463C94.0337 21.5228 94.2523 21.4954 94.4435 21.5745 103.151 25.835 109.004 34.3293 109.885 43.9828 110.084 45.5416 109.653 47.1152 108.689 48.3561L107.471 49.9192C107.083 47.5631 106.045 45.3617 104.475 43.5625L98.6751 36.9085C98.2493 36.421 97.5846 36.216 96.9582 36.379 93.7943 37.199 91.8076 39.688 89.7029 42.3223 86.4571 46.3847 82.779 50.9886 73.4737 50.9886L51.8599 50.9886C53.4355 48.0597 54.5466 44.9039 55.1535 41.6338ZM59.807 56.375 59.807 54.4087 73.4737 54.4087C84.4258 54.4087 89.0196 48.6585 92.3747 44.4577 93.5538 42.6909 95.0858 41.1872 96.8745 40.0416L101.902 45.8107C103.398 47.5282 104.224 49.7287 104.225 52.0068L104.225 54.6684 104.225 56.3767C104.212 68.6366 94.277 78.5719 82.0171 78.5851L82.0171 78.5851C69.7559 78.5728 59.8194 68.6362 59.807 56.375ZM65.805 88.1893C68.3725 87.1416 70.0482 84.6416 70.0417 81.8685L70.0417 79.019C77.5223 82.9927 86.488 82.9927 93.9686 79.019L93.9686 81.8599C93.9616 84.6331 95.6375 87.1334 98.2053 88.1808L101.299 89.4501 93.4578 145.089C90.4477 145.207 87.3864 145.272 84.3097 145.289L90.335 139.019 88.2115 103.486 91.9801 90.5417 72.0541 90.5417 75.7834 103.368 73.7043 139.021 79.716 145.278C76.641 145.244 73.566 145.164 70.5473 145.029L62.7129 89.4586ZM85.4406 100.792 78.5936 100.792 76.6051 93.9584 87.4291 93.9584ZM79.1556 104.208 84.8324 104.208 86.8346 137.731 82.0188 142.743 77.2013 137.729ZM59.4671 90.9192 67.0726 144.853C51.9385 143.972 38.552 141.778 32.4788 138.283L32.4788 111.083C32.5487 107.569 34.201 104.275 36.9752 102.117 42.7083 97.4229 49.6749 94.4196 57.0344 91.7785ZM106.983 91.7734C114.346 94.4162 121.312 97.4211 127.078 102.138 129.827 104.285 131.466 107.554 131.542 111.042L131.542 138.337C125.92 141.915 112.379 144.106 96.924 144.926L104.55 90.9158Z" transform="matrix(1 0 0 1.00026 658 405.105)"/><path d="M107.634 116.167 123.007 116.167 123.007 119.583 107.634 119.583Z" transform="matrix(1 0 0 1.00026 658 405.105)"/></g></g></g><path d="M662 595.322C662 587.496 668.343 581.151 676.167 581.151L807.833 581.151C815.657 581.151 822 587.496 822 595.322L822 652.003C822 659.829 815.657 666.173 807.833 666.173L676.167 666.173C668.343 666.173 662 659.829 662 652.003Z" stroke="#000000" stroke-width="1.99948" stroke-linejoin="round" stroke-miterlimit="10" fill="#FFFFFF" fill-rule="evenodd"/><text font-family="Arial Black,Arial Black_MSFontService,sans-serif" font-weight="900" font-size="19" transform="matrix(1 0 0 1.00026 676.2 630)">Premier Rep.</text><g><g><g><path d="M82 27.3333C95.2088 27.3333 105.917 38.0412 105.917 51.25 105.917 64.4588 95.2088 75.1667 82 75.1667 68.7912 75.1667 58.0833 64.4588 58.0833 51.25 58.0965 38.0466 68.7966 27.3465 82 27.3333M82 23.9167C66.9042 23.9167 54.6667 36.1541 54.6667 51.25 54.6667 66.3459 66.9042 78.5833 82 78.5833 97.0959 78.5833 109.333 66.3459 109.333 51.25 109.333 36.1541 97.0959 23.9167 82 23.9167Z" transform="matrix(1 0 0 1.00026 858 405.105)"/><path d="M136.667 140.083 133.25 140.083 133.25 113.604C133.169 109.976 131.459 106.576 128.595 104.347 121.103 98.5978 112.524 94.4249 103.376 92.0792 96.4503 89.9479 89.2466 88.854 82 88.8334 74.7557 88.9591 67.5605 90.0507 60.6048 92.0792 51.5526 94.7305 43.0121 98.8888 35.342 104.379 32.5065 106.611 30.8212 109.997 30.75 113.604L30.75 140.083 27.3333 140.083 27.3333 113.604C27.4181 108.938 29.5991 104.558 33.2715 101.678 41.2862 95.925 50.2163 91.5687 59.6841 88.7941 66.9392 86.6802 74.4442 85.5443 82 85.4167 89.5715 85.4353 97.0986 86.5746 104.336 88.7975 113.919 91.2667 122.902 95.6518 130.744 101.689 134.409 104.568 136.584 108.944 136.667 113.604Z" transform="matrix(1 0 0 1.00026 858 405.105)"/></g></g></g><path d="M862 595.322C862 587.496 868.343 581.151 876.167 581.151L1007.83 581.151C1015.66 581.151 1022 587.496 1022 595.322L1022 652.003C1022 659.829 1015.66 666.173 1007.83 666.173L876.167 666.173C868.343 666.173 862 659.829 862 652.003Z" stroke="#000000" stroke-width="1.99948" stroke-linejoin="round" stroke-miterlimit="10" fill="#FFFFFF" fill-rule="evenodd"/><text font-family="Arial Black,Arial Black_MSFontService,sans-serif" font-weight="900" font-size="19" transform="matrix(1 0 0 1.00026 876.355 630)">General Rep.</text><g><g><g><path d="M86.1 15.8 34.9 64.2 10.3 39 1.8 47.1 34.5 80.7 43.1 72.7 94.2 24.2Z" transform="matrix(1 0 0 1.00026 585 193.05)"/></g></g></g><path d="M0 0 93.0796 116.339" stroke="#000000" stroke-width="2.66597" stroke-linejoin="round" stroke-miterlimit="10" fill="none" fill-rule="evenodd" transform="matrix(1 0 0 -1.00026 540.5 405.945)"/><path d="M740.576 405.945 633.5 289.575" stroke="#000000" stroke-width="2.66597" stroke-linejoin="round" stroke-miterlimit="10" fill="none" fill-rule="evenodd"/><path d="M0 0 293.235 116.339" stroke="#000000" stroke-width="2.66597" stroke-linejoin="round" stroke-miterlimit="10" fill="none" fill-rule="evenodd" transform="matrix(1 0 0 -1.00026 340.5 405.945)"/><path d="M940.732 405.945 633.5 289.575" stroke="#000000" stroke-width="2.66597" stroke-linejoin="round" stroke-miterlimit="10" fill="none" fill-rule="evenodd"/></g></svg>