<svg width="1280" height="720" xmlns="http://www.w3.org/2000/svg" xmlns:xlink="http://www.w3.org/1999/xlink" overflow="hidden"><defs><clipPath id="clip0"><rect x="0" y="0" width="1280" height="720"/></clipPath></defs><g clip-path="url(#clip0)"><rect x="0" y="0" width="1280" height="720.188" fill="#FFFFFF"/><path d="M71 143.705C71 127.868 83.8347 115.03 99.6671 115.03L449.333 115.03C465.165 115.03 478 127.868 478 143.705L478 258.4C478 274.237 465.165 287.075 449.333 287.075L99.6671 287.075C83.8347 287.075 71 274.237 71 258.4Z" fill="#89D1FF" fill-rule="evenodd"/><text font-family="Arial Black,Arial Black_MSFontService,sans-serif" font-weight="900" font-size="37" transform="matrix(1 0 0 1.00026 104.681 213)">Governing</text><text font-family="Arial Black,Arial Black_MSFontService,sans-serif" font-weight="900" font-size="37" transform="matrix(1 0 0 1.00026 324.291 213)">Boar</text><text font-family="Arial Black,Arial Black_MSFontService,sans-serif" font-weight="900" font-size="37" transform="matrix(1 0 0 1.00026 419.433 213)">d</text><path d="M766 143.705C766 127.868 778.835 115.03 794.667 115.03L1144.33 115.03C1160.17 115.03 1173 127.868 1173 143.705L1173 258.4C1173 274.237 1160.17 287.075 1144.33 287.075L794.667 287.075C778.835 287.075 766 274.237 766 258.4Z" fill="#89D1FF" fill-rule="evenodd"/><text font-family="Arial Black,Arial Black_MSFontService,sans-serif" font-weight="900" font-size="37" transform="matrix(1 0 0 1.00026 868.993 191)">Technical</text><text font-family="Arial Black,Arial Black_MSFontService,sans-serif" font-weight="900" font-size="37" transform="matrix(1 0 0 1.00026 798.512 236)">Advisory Council</text><path d="M766 547.81C766 531.973 778.835 519.135 794.667 519.135L1144.33 519.135C1160.17 519.135 1173 531.973 1173 547.81L1173 662.505C1173 678.342 1160.17 691.18 1144.33 691.18L794.667 691.18C778.835 691.18 766 678.342 766 662.505Z" fill="#89D1FF" fill-rule="evenodd"/><text font-family="Arial Black,Arial Black_MSFontService,sans-serif" font-weight="900" font-size="37" transform="matrix(1 0 0 1.00026 868.993 596)">Technical</text><text font-family="Arial Black,Arial Black_MSFontService,sans-serif" font-weight="900" font-size="37" transform="matrix(1 0 0 1.00026 884.576 641)">Projects</text><path d="M478.5 201.552 766.425 201.553" stroke="#7F7F7F" stroke-width="2.66597" stroke-linejoin="round" stroke-miterlimit="10" stroke-dasharray="10.6639 7.99792" fill="none" fill-rule="evenodd"/><path d="M0 0 0.00010496 232.463" stroke="#7F7F7F" stroke-width="2.66597" stroke-linejoin="round" stroke-miterlimit="10" fill="none" fill-rule="evenodd" transform="matrix(1 0 0 -1.00026 969.5 520.098)"/><path d="M611.5 17.5046 611.5 701.505" stroke="#002A86" stroke-width="2.66597" stroke-linejoin="round" stroke-miterlimit="10" fill="none" fill-rule="evenodd"/><text font-family="Arial,Arial_MSFontService,sans-serif" font-weight="400" font-size="24" transform="matrix(1 0 0 1.00026 122.51 59)">Organisational Governance</text><text font-family="Arial,Arial_MSFontService,sans-serif" font-weight="400" font-size="24" transform="matrix(1 0 0 1.00026 846.77 59)">Technical Governance</text></g></svg>
