<svg width="1280" height="720" xmlns="http://www.w3.org/2000/svg" xmlns:xlink="http://www.w3.org/1999/xlink" overflow="hidden"><defs><clipPath id="clip0"><rect x="0" y="0" width="1280" height="720"/></clipPath></defs><g clip-path="url(#clip0)"><rect x="0" y="0" width="1280" height="720.188" fill="#FFFFFF"/><g><g><g><path d="M167.044 55.6812C193.951 55.6812 215.765 77.4943 215.765 104.402 215.765 131.31 193.951 153.123 167.044 153.123 140.136 153.123 118.322 131.31 118.322 104.402 118.349 77.5054 140.147 55.708 167.044 55.6812M167.044 48.721C136.291 48.721 111.362 73.6502 111.362 104.402 111.362 135.154 136.291 160.083 167.044 160.083 197.796 160.083 222.725 135.154 222.725 104.402 222.725 73.6502 197.796 48.721 167.044 48.721Z" transform="matrix(1.00273 0 0 1 183 140.036)"/><path d="M278.406 285.366 271.446 285.366 271.446 231.425C271.28 224.033 267.798 217.107 261.963 212.566 246.7 200.855 229.225 192.354 210.59 187.576 196.48 183.234 181.806 181.006 167.044 180.964 152.286 181.22 137.629 183.444 123.459 187.576 105.019 192.977 87.6206 201.448 71.9958 212.632 66.2195 217.179 62.7864 224.076 62.6413 231.425L62.6413 285.366 55.6812 285.366 55.6812 231.425C55.8538 221.919 60.2968 212.997 67.7779 207.13 84.1047 195.41 102.296 186.536 121.583 180.884 136.363 176.578 151.651 174.264 167.044 174.004 182.468 174.042 197.801 176.362 212.545 180.891 232.067 185.921 250.367 194.854 266.34 207.151 273.807 213.017 278.237 221.931 278.406 231.425Z" transform="matrix(1.00273 0 0 1 183 140.036)"/></g></g></g><g><g><g><path d="M109.532 135.723 113.134 135.723C120.806 165.487 151.153 183.395 180.917 175.723 200.87 170.58 216.349 154.833 221.148 134.794L223.48 135.552C223.827 135.666 224.19 135.724 224.555 135.723 225.151 135.722 225.736 135.57 226.257 135.281 227.103 134.806 227.712 134 227.938 133.057 233.6 109.592 225.27 84.9629 206.528 69.7511L217.431 67.7535C219.318 67.3836 220.547 65.5548 220.177 63.6686 219.813 61.8151 218.037 60.5898 216.175 60.9082L198.382 64.1691 198.061 63.9742 202.888 59.0394C204.234 57.6652 204.21 55.4605 202.836 54.1151 201.462 52.7697 199.257 52.7931 197.912 54.1673L191.547 60.6751C191.366 60.5985 191.199 60.5324 191.004 60.4593L185.067 43.9185C184.489 42.0856 182.534 41.0683 180.701 41.6464 178.868 42.2244 177.851 44.1788 178.429 46.0121 178.458 46.1044 178.491 46.1955 178.528 46.285L182.638 57.7379C149.144 49.1139 115.001 69.275 106.377 102.769 103.821 112.694 103.741 123.094 106.142 133.057 106.519 134.623 107.921 135.726 109.532 135.723ZM167.044 170.524C143.745 170.575 123.693 154.072 119.262 131.199L124.172 121.378C128.757 120.191 133.147 118.352 137.209 115.918 140.762 113.719 144.067 111.141 147.064 108.23 147.073 108.215 147.093 108.209 147.108 108.218 147.123 108.227 147.129 108.246 147.12 108.262 146.981 108.644 146.911 108.815 146.876 108.898 146.821 109.041 146.765 109.177 146.709 109.313 145.333 113.049 142.997 116.358 139.937 118.907 138.335 119.968 137.895 122.127 138.956 123.73 139.782 124.977 141.312 125.557 142.756 125.171 143.654 124.931 164.938 119.255 178.281 110.005 185.01 105.357 191.301 100.104 197.073 94.31 202.107 99.1616 206.241 104.866 209.285 111.16 211.832 117.297 213.745 123.678 214.992 130.203 211 153.549 190.728 170.596 167.044 170.524ZM167.044 62.6413C197.63 62.4764 222.558 87.1376 222.724 117.724 222.738 120.368 222.563 123.011 222.199 125.631 222.199 125.648 222.185 125.662 222.168 125.662 222.15 125.662 222.137 125.648 222.137 125.631 221.861 124.998 221.401 124.462 220.818 124.092 219.535 118.745 217.827 113.508 215.712 108.432 211.68 100.203 206.091 92.8334 199.255 86.7304 198.564 86.1137 197.653 85.8036 196.729 85.8708 195.807 85.931 194.946 86.3556 194.338 87.0506 188.317 93.5036 181.603 99.2726 174.317 104.253 167.278 108.74 159.713 112.343 151.794 114.982 151.752 114.982 151.735 114.982 151.756 114.936 152.412 113.679 152.993 112.383 153.496 111.056 155.094 106.222 156.31 101.27 157.132 96.2449 157.446 94.3486 156.163 92.5571 154.267 92.2435 152.987 92.0319 151.696 92.5494 150.917 93.5861 146.075 99.9293 140.239 105.447 133.635 109.925 129.808 112.259 125.619 113.937 121.239 114.888 120.132 115.065 119.179 115.765 118.677 116.767L112.692 128.763 112.344 128.763C106.603 98.5261 126.46 69.3603 156.697 63.6196 160.108 62.9719 163.572 62.6445 167.044 62.6413Z" transform="matrix(1.00273 0 0 1 762 140.036)"/><path d="M242.756 214.995C225.679 202.241 205.924 193.539 184.987 189.549 183.096 189.206 181.284 190.461 180.941 192.352 180.922 192.461 180.907 192.571 180.898 192.681 180.279 199.862 174.25 205.364 167.044 205.324L167.044 205.324C159.857 205.225 153.878 199.77 153.123 192.622 152.929 190.71 151.222 189.317 149.31 189.511 149.226 189.52 149.142 189.531 149.059 189.546 128.122 193.478 108.374 202.187 91.3519 214.995 81.9787 222.239 76.5115 233.433 76.5616 245.279L76.5616 285.366 83.5218 285.366 83.5218 245.279C83.4629 235.613 87.9046 226.471 95.5384 220.543 106.281 212.5 118.177 206.126 130.823 201.635L125.352 228.989C124.976 230.874 126.199 232.707 128.083 233.083 128.883 233.243 129.713 233.117 130.43 232.726L163.563 214.668 163.563 285.366 170.524 285.366 170.524 214.668 203.657 232.74C204.169 233.018 204.742 233.164 205.324 233.165 207.246 233.165 208.805 231.608 208.805 229.686 208.805 229.452 208.782 229.218 208.735 228.989L203.288 201.75C215.911 206.228 227.796 212.562 238.552 220.543 246.184 226.472 250.624 235.615 250.565 245.279L250.565 285.366 257.525 285.366 257.525 245.279C257.579 233.437 252.121 222.244 242.756 214.995ZM138.409 199.185C141.249 198.371 144.085 197.626 146.908 197.042 148.576 202.633 152.455 207.3 157.647 209.963L133.694 223.027C133.677 223.035 133.656 223.028 133.648 223.01 133.645 223.004 133.644 222.996 133.645 222.989ZM200.386 223.027 176.52 210.008C181.73 207.389 185.591 202.692 187.151 197.073 189.981 197.682 192.838 198.465 195.695 199.283L200.452 222.989C200.463 223.007 200.456 223.031 200.438 223.041 200.42 223.052 200.397 223.046 200.386 223.027Z" transform="matrix(1.00273 0 0 1 762 140.036)"/></g></g></g><path d="M147 521.803C147 505.966 159.835 493.128 175.667 493.128L525.333 493.128C541.165 493.128 554 505.966 554 521.803L554 636.499C554 652.335 541.165 665.173 525.333 665.173L175.667 665.173C159.835 665.173 147 652.335 147 636.499Z" stroke="#000000" stroke-width="1.99948" stroke-linejoin="round" stroke-miterlimit="10" fill="#FFFFFF" fill-rule="evenodd"/><text font-family="Arial Black,Arial Black_MSFontService,sans-serif" font-weight="900" font-size="37" transform="matrix(1 0 0 1.00026 234.613 592)">Contributor</text><path d="M726 529.805C726 513.969 738.835 501.13 754.667 501.13L1104.33 501.13C1120.17 501.13 1133 513.969 1133 529.805L1133 644.501C1133 660.337 1120.17 673.175 1104.33 673.175L754.667 673.175C738.835 673.175 726 660.337 726 644.501Z" stroke="#000000" stroke-width="1.99948" stroke-linejoin="round" stroke-miterlimit="10" fill="#FFFFFF" fill-rule="evenodd"/><text font-family="Arial Black,Arial Black_MSFontService,sans-serif" font-weight="900" font-size="37" transform="matrix(1 0 0 1.00026 805.366 600)">Code Owner</text><text font-family="Arial Black,Arial Black_MSFontService,sans-serif" font-weight="900" font-size="37" transform="matrix(1 0 0 1.00026 497.037 99)">General Roles</text></g></svg>
